PathFileType	4	(X/Y/Z)	s10c0301.trc
DataRate	CameraRate	NumFrames	NumMarkers	Units	OrigDataRate	OrigDataStartFrame	OrigNumFrames
200	200	5	50	mm	200	250	2000
Frame#	Time	racr			lacr			c7			jug			rlel			rdr			llel			ldr			s2			lic			ric			lasi			rasi			rpsi			lpsi			rgt			lgt			rth1			rth2			rth3			rth4			rlfc			rmfc			rsh1			rsh2			rsh3			rsh4			rlmal			rmmal			rcal			rtoe			rmt5			lth1			lth2			lth4			lth3			llfc			lmfc			llmal			lmmal			lcal			lmt5			lsh1			lsh2			lsh3			lsh4			ltoe			SBIKE			LBIKE			RBIKE			
		X1	Y1	Z1	X2	Y2	Z2	X3	Y3	Z3	X4	Y4	Z4	X5	Y5	Z5	X6	Y6	Z6	X7	Y7	Z7	X8	Y8	Z8	X9	Y9	Z9	X10	Y10	Z10	X11	Y11	Z11	X12	Y12	Z12	X13	Y13	Z13	X14	Y14	Z14	X15	Y15	Z15	X16	Y16	Z16	X17	Y17	Z17	X18	Y18	Z18	X19	Y19	Z19	X20	Y20	Z20	X21	Y21	Z21	X22	Y22	Z22	X23	Y23	Z23	X24	Y24	Z24	X25	Y25	Z25	X26	Y26	Z26	X27	Y27	Z27	X28	Y28	Z28	X29	Y29	Z29	X30	Y30	Z30	X31	Y31	Z31	X32	Y32	Z32	X33	Y33	Z33	X34	Y34	Z34	X35	Y35	Z35	X36	Y36	Z36	X37	Y37	Z37	X38	Y38	Z38	X39	Y39	Z39	X40	Y40	Z40	X41	Y41	Z41	X42	Y42	Z42	X43	Y43	Z43	X44	Y44	Z44	X45	Y45	Z45	X46	Y46	Z46	X47	Y47	Z47	X48	Y48	Z48	X49	Y49	Z49	X50	Y50	Z50	
250	1.2500	469.783032	1249.368371	29.215844	530.971883	1292.602129	-285.715173	481.471650	1320.504263	-138.766310	472.853648	1178.354322	-146.355173	433.390276	976.883163	12.415629	633.326835	895.173273	-45.379204	512.626286	1059.668456	-449.067088	642.033724	883.056015	-421.578323	-46.901726	1149.518063	-192.316009	115.459418	1163.468688	-350.557240	144.607900	1137.671557	-66.813987	121.120881	1078.374711	-330.494618	133.614199	1044.729955	-79.119217	6.428757	1195.494511	-137.246772	5.461461	1215.603959	-247.794993	36.605361	1034.415170	-20.133580	-4.809182	1050.133667	-400.061040	115.758293	909.586753	-10.958287	184.307733	857.208317	-34.809175	214.979471	778.729581	-49.435283	210.371293	881.851958	-44.649785	284.789824	697.053263	-76.605742	257.413297	687.117315	-188.126204	248.665818	588.527980	-39.587011	260.024149	501.488928	-53.958403	228.861046	420.725040	-52.842568	284.823801	501.450828	-82.821971	207.059995	322.300128	-65.099179	221.361747	334.758902	-148.525487	152.567045	298.505699	-109.188934	394.457245	270.393499	-103.881430	311.446912	248.690770	-41.089044	86.144783	956.247059	-424.707132	164.821467	920.618368	-415.864606	186.127423	947.148942	-402.647546	217.160000	849.050009	-420.669139	285.288525	763.787983	-414.868286	290.020999	745.232412	-293.519589	-19.079137	528.601435	-384.491956	0.468182	523.299659	-304.389754	-77.026952	537.761453	-332.699984	18.451847	388.248365	-397.843843	178.545054	694.854318	-438.178043	134.463226	622.068419	-415.672243	55.010257	581.961794	-404.666034	156.995261	605.170180	-389.888385	100.048982	353.228006	-345.918537	-217.630212	833.386498	-213.261063	-104.050548	80.463173	-418.323533	-103.971291	80.350458	-18.289406	
251	1.2550	471.894813	1248.925574	29.798168	532.523507	1292.748043	-285.502795	483.263949	1320.754063	-138.193700	474.563191	1178.556980	-146.069109	433.830313	976.618650	12.559715	633.957636	895.135988	-46.792173	513.682783	1059.996284	-448.885185	642.203631	883.147398	-421.574065	-44.714469	1149.301998	-192.395848	117.354022	1164.031420	-350.561004	146.329487	1137.799030	-66.484590	123.282180	1078.768476	-330.545640	135.557017	1044.518739	-79.170300	8.237381	1195.464874	-136.998915	7.315693	1215.749063	-247.528023	38.465428	1034.151170	-20.280721	-2.636583	1050.702912	-400.210460	116.829861	909.124417	-10.976427	185.137532	856.055927	-34.684638	215.177483	777.451207	-49.193738	211.337377	880.508183	-44.438888	284.336013	695.361215	-76.117499	257.277965	685.410969	-187.723023	248.146164	586.779300	-39.235546	259.453551	499.790895	-53.690523	228.346402	418.977344	-52.678010	284.332813	499.884386	-82.434849	206.749558	320.718321	-65.025932	220.761751	332.987098	-148.380849	152.125237	297.540771	-109.116694	393.769068	267.140720	-103.921891	310.480498	246.151583	-41.174712	88.424048	956.891169	-425.044017	167.143387	921.416220	-416.243191	188.420844	948.049354	-403.019257	219.650022	849.925844	-420.914717	288.036324	764.807868	-415.171410	293.177415	746.316844	-293.632553	-17.301913	531.161808	-384.608564	2.209209	525.762670	-304.470243	-75.298427	540.380173	-332.578298	19.789749	390.716094	-397.828400	181.316155	696.271070	-438.455865	136.585262	623.654492	-415.428666	57.104465	584.132863	-404.869457	159.261578	606.765832	-390.084604	101.229318	355.256099	-345.833082	-217.590239	833.467784	-213.464655	-104.053044	80.466867	-418.315625	-103.963829	80.345166	-18.300831	
252	1.2600	474.128073	1248.478705	30.326741	534.023461	1292.885702	-285.395124	485.155936	1321.331198	-137.799445	476.214410	1178.783451	-145.899649	434.253484	976.291186	12.775522	634.133021	894.872797	-47.053642	514.579705	1060.290888	-448.749689	642.391267	883.221736	-421.554850	-43.031292	1149.459400	-192.178940	119.375232	1164.540308	-350.608564	148.092941	1137.817705	-66.285883	125.472587	1079.216729	-330.661660	137.447354	1044.338111	-79.118686	10.010613	1195.330294	-136.778851	9.187103	1215.874476	-247.233566	40.220902	1033.838682	-20.476239	-0.390078	1051.285922	-400.369222	117.899065	908.571632	-10.953047	185.752312	855.118532	-34.530872	215.279064	776.155713	-48.901974	212.291770	879.307443	-44.098160	283.878703	693.565632	-75.755374	257.173461	683.710058	-187.258840	247.491065	585.067210	-38.874199	258.801753	498.077298	-53.333170	227.671545	417.230863	-52.455848	283.811903	498.039066	-82.080639	206.357086	319.093871	-64.906227	220.546598	331.088651	-148.194422	151.694573	296.535523	-108.956797	393.013559	264.035719	-103.818729	309.604598	243.697593	-41.108262	90.726925	957.497129	-425.382140	169.552089	922.131849	-416.544750	190.760661	948.924638	-403.445039	222.228082	850.893701	-421.286315	290.904743	765.783764	-415.448893	302.683220	748.812435	-292.221713	-15.495774	533.738962	-384.686300	3.995125	528.226400	-304.554923	-73.585272	542.958219	-332.464503	21.145501	393.188938	-397.826909	184.162390	697.755502	-438.656619	138.946035	625.328807	-415.608503	59.245159	586.411554	-405.027475	161.503435	608.283831	-390.006969	102.537612	357.558210	-345.897198	-217.562238	833.418366	-213.478067	-104.048787	80.466971	-418.323867	-103.977821	80.351262	-18.300799	
253	1.2650	476.443031	1247.945148	30.769304	535.498828	1293.082243	-285.352565	486.963193	1321.426058	-137.317045	477.899347	1179.004285	-145.817084	434.764815	975.953104	13.151709	634.312007	894.542764	-47.357913	515.475653	1060.567710	-448.521253	642.574641	883.250391	-421.525206	-41.104443	1149.343928	-192.176947	121.359211	1165.023100	-350.567356	149.793882	1137.806747	-65.997334	127.646187	1079.621552	-330.689102	139.290019	1044.133832	-79.176853	11.783448	1195.161065	-136.592381	11.057107	1216.006333	-246.947801	41.910119	1033.403508	-20.753167	1.897454	1051.820595	-400.566856	118.876353	907.975216	-11.046398	186.380472	853.961525	-34.379359	215.288540	774.779608	-48.625162	213.172113	877.988964	-43.818405	283.327196	691.809721	-75.373349	257.095320	682.077876	-186.833648	246.760486	583.322204	-38.538797	258.124214	496.403836	-52.924511	226.904601	415.542797	-52.241789	283.125530	496.348435	-81.608046	206.010314	317.351961	-64.825455	219.912030	329.451685	-147.976226	151.139601	295.173552	-109.007419	392.136912	260.881467	-103.804242	308.544471	241.198666	-41.121743	93.111864	957.980324	-425.687707	172.023395	922.889543	-416.902528	193.144908	949.641097	-403.774729	224.899767	851.709957	-421.475029	293.789730	766.763295	-415.635647	301.177101	748.589965	-293.875473	-13.638134	536.227487	-384.746314	5.786507	530.729459	-304.552308	-71.928077	545.526888	-332.463007	22.578571	395.628980	-397.863872	187.071230	699.036555	-438.880399	141.417529	626.959679	-415.684282	61.416840	588.535220	-405.124177	163.765772	610.013603	-390.194732	103.790069	359.692299	-345.899071	-217.535220	833.417033	-213.534601	-104.055451	80.467644	-418.320984	-103.971050	80.353208	-18.295829	
254	1.2700	478.799112	1247.424979	31.158941	536.849570	1293.320086	-285.455845	489.018423	1321.418764	-137.108004	479.636373	1179.232221	-145.807032	435.259370	975.568844	13.695814	634.509724	894.127488	-47.714503	516.305838	1060.786912	-448.214282	642.764450	883.307154	-421.465498	-39.154156	1149.218733	-192.280622	123.340200	1165.517697	-350.577704	151.468364	1137.754691	-65.696154	129.867470	1080.004681	-330.745389	140.960758	1044.097156	-79.314436	13.556097	1194.898573	-136.366448	12.915518	1216.094080	-246.715416	43.499133	1032.951136	-21.065563	4.246096	1052.243964	-400.756705	119.733755	907.302379	-11.101410	186.896487	852.809335	-34.229326	215.241330	773.361463	-48.403604	213.883878	876.612248	-43.521572	282.692637	690.060716	-74.888770	256.969613	680.274799	-186.427275	245.897350	581.607892	-38.205740	257.399069	494.569608	-52.645091	226.155459	413.815251	-51.964875	282.452097	494.473102	-81.138749	205.506498	315.702342	-64.712998	219.481941	327.595660	-147.839007	150.533769	293.974421	-109.118408	391.280867	257.848530	-103.717359	307.580007	238.744945	-41.037157	95.607660	958.460903	-426.010731	174.562406	923.604468	-417.175167	195.663456	950.421000	-404.115045	227.644621	852.554145	-421.790490	296.734229	767.679590	-415.743670	303.183363	749.268936	-294.149259	-11.721235	538.754735	-384.857194	8.561382	533.505638	-304.414514	-70.176041	548.195080	-332.629583	24.075138	398.107945	-397.866413	189.961950	700.413639	-438.957368	143.839909	628.718810	-415.732187	63.663749	590.643421	-405.228440	166.138129	611.482043	-390.116566	105.107651	361.908192	-345.905185	-217.547171	833.421028	-213.565480	-104.038918	80.471726	-418.313510	-103.975264	80.354572	-18.308730	
